<?xml version="1.0" standalone="no"?>
<!DOCTYPE svg PUBLIC "-//W3C//DTD SVG 20010904//EN"
 "http://www.w3.org/TR/2001/REC-SVG-20010904/DTD/svg10.dtd">
<svg version="1.0" xmlns="http://www.w3.org/2000/svg"
 width="280.000000pt" height="280.000000pt" viewBox="0 0 280.000000 280.000000"
 preserveAspectRatio="xMidYMid meet">
<metadata>
Created by potrace 1.14, written by Peter Selinger 2001-2017
</metadata>
<g transform="translate(0.000000,280.000000) scale(0.100000,-0.100000)"
fill="#000000" stroke="none">
<path d="M1235 2793 c-77 -11 -257 -57 -335 -87 -208 -81 -392 -206 -531 -361
-24 -27 -52 -59 -62 -70 -10 -11 -42 -56 -71 -100 -98 -147 -151 -270 -198
-457 -29 -115 -31 -135 -32 -308 0 -143 4 -202 17 -262 10 -42 20 -88 22 -100
5 -26 32 -105 62 -183 27 -68 80 -167 128 -239 22 -33 45 -66 50 -74 12 -18
89 -105 126 -141 106 -108 246 -206 382 -271 49 -23 94 -43 100 -44 7 -1 21
-7 32 -13 11 -6 79 -25 150 -43 114 -28 149 -33 290 -35 171 -4 223 2 380 41
150 37 290 98 415 181 128 85 143 97 236 193 92 96 110 117 168 205 115 175
156 278 223 560 12 51 11 336 -2 415 -80 506 -395 906 -866 1100 -62 26 -170
56 -307 86 -32 7 -334 12 -377 7z"/>
</g>
</svg>
